<?xml version="1.0" encoding="UTF-8" standalone="no"?>
<!-- Created with Inkscape (http://www.inkscape.org/) -->

<svg
   version="1.1"
   id="svg1"
   width="385.33334"
   height="118.66667"
   viewBox="0 0 385.33334 118.66667"
   sodipodi:docname="alza_cz.eps"
   xmlns:inkscape="http://www.inkscape.org/namespaces/inkscape"
   xmlns:sodipodi="http://sodipodi.sourceforge.net/DTD/sodipodi-0.dtd"
   xmlns="http://www.w3.org/2000/svg"
   xmlns:svg="http://www.w3.org/2000/svg">
  <defs
     id="defs1" />
  <sodipodi:namedview
     id="namedview1"
     pagecolor="#ffffff"
     bordercolor="#000000"
     borderopacity="0.25"
     inkscape:showpageshadow="2"
     inkscape:pageopacity="0.0"
     inkscape:pagecheckerboard="0"
     inkscape:deskcolor="#d1d1d1">
    <inkscape:page
       x="0"
       y="0"
       inkscape:label="1"
       id="page1"
       width="385.33334"
       height="118.66667"
       margin="0"
       bleed="0" />
  </sodipodi:namedview>
  <g
     id="g1"
     inkscape:groupmode="layer"
     inkscape:label="1">
    <path
       id="path1"
       d="M 682.297,194.375 H 475.281 c -1.07,10.199 -1.609,18.43 -1.609,24.691 0,17.711 1.254,38.645 3.578,62.801 -41.508,-66.379 -99.48,-99.48 -173.914,-99.48 -50.457,0 -91.066,14.492 -122.203,43.48 -31.129,28.985 -46.699,65.305 -46.699,108.961 0,32.567 8.41,62.266 25.23,89.461 16.816,27.02 40.434,48.668 71.211,64.594 30.777,16.101 62.266,26.656 94.469,31.847 32.027,5.008 95.011,11.985 188.586,20.575 4.297,13.062 6.261,23.082 6.261,30.418 0,28.984 -20.218,43.656 -60.652,43.656 -39.902,0 -69.242,-19.859 -88.211,-59.402 l -172.305,35.25 c 43.661,98.226 139.743,147.25 288.25,147.25 75.145,0 134.192,-13.063 177.129,-39.004 42.942,-26.121 64.59,-64.41 64.59,-115.047 0,-22.723 -12.699,-103.059 -37.746,-241.188 -9.488,-51.351 -14.316,-85.343 -14.316,-102.164 0,-13.597 1.789,-29.164 5.367,-46.699 z M 495.68,445.941 c -96.082,-7.336 -144.211,-38.113 -144.211,-92.144 0,-29.703 15.566,-44.555 46.699,-44.555 19.859,0 39.898,8.77 59.758,26.66 19.863,17.895 32.387,54.571 37.754,110.039"
       style="fill:#ffffff;fill-opacity:1;fill-rule:nonzero;stroke:none"
       transform="matrix(0.13333333,0,0,-0.13333333,0,118.66667)" />
    <path
       id="path2"
       d="M 103.164,646.254 7.67969,624.609 149.043,1.0625 772.578,142.422 749.891,242.5 677.586,226.109 c 0.809,-9.746 2.383,-20.32 4.711,-31.734 H 537.613 l -315.773,-71.59 -19.637,86.61 c -7.449,4.843 -14.473,10.328 -21.07,16.472 -31.129,28.985 -46.699,65.305 -46.699,108.961 0,29.551 6.925,56.746 20.777,81.848 l -52.047,229.578"
       style="fill:#231f20;fill-opacity:1;fill-rule:evenodd;stroke:none"
       transform="matrix(0.13333333,0,0,-0.13333333,0,118.66667)" />
    <path
       id="path3"
       d="M 704.023,887.688 80.4727,746.336 155.211,416.676 c 1.414,2.562 2.894,5.097 4.453,7.613 16.816,27.02 40.438,48.668 71.211,64.594 30.773,16.101 62.262,26.656 94.469,31.847 32.027,5.008 95.011,11.985 188.586,20.575 4.297,13.062 6.261,23.082 6.261,30.418 0,28.984 -20.218,43.656 -60.652,43.656 -39.902,0 -69.242,-19.859 -88.211,-59.402 l -172.305,35.25 c 43.661,98.226 139.743,147.25 288.25,147.25 75.145,0 134.192,-13.059 177.129,-39.004 42.942,-26.121 64.594,-64.41 64.594,-115.047 0,-22.723 -12.703,-103.059 -37.754,-241.188 -9.484,-51.351 -14.312,-85.347 -14.312,-102.164 0,-4.75 0.218,-9.742 0.656,-14.965 l 167.789,38.039 z m -501.82,-678.293 19.637,-86.61 315.773,71.59 h -62.332 c -1.07,10.195 -1.609,18.43 -1.609,24.691 0,17.711 1.254,38.645 3.578,62.801 -41.508,-66.379 -99.48,-99.48 -173.91,-99.48 -39.77,0 -73.422,9.008 -101.137,27.008 z M 495.68,445.941 c -96.082,-7.336 -144.211,-38.113 -144.211,-92.144 0,-29.703 15.566,-44.555 46.699,-44.555 19.859,0 39.898,8.77 59.758,26.66 19.859,17.895 32.387,54.575 37.754,110.039"
       style="fill:#1a2f5f;fill-opacity:1;fill-rule:evenodd;stroke:none"
       transform="matrix(0.13333333,0,0,-0.13333333,0,118.66667)" />
    <path
       id="path4"
       d="M 682.297,194.375 H 475.281 c -1.07,10.199 -1.609,18.43 -1.609,24.691 0,17.711 1.254,38.645 3.578,62.801 -41.508,-66.379 -99.48,-99.48 -173.914,-99.48 -50.457,0 -91.066,14.492 -122.203,43.48 -31.129,28.985 -46.699,65.305 -46.699,108.961 0,32.567 8.41,62.266 25.23,89.461 16.816,27.02 40.434,48.668 71.211,64.594 30.777,16.101 62.266,26.656 94.469,31.847 32.027,5.008 95.011,11.985 188.586,20.575 4.297,13.062 6.261,23.082 6.261,30.418 0,28.984 -20.218,43.656 -60.652,43.656 -39.902,0 -69.242,-19.859 -88.211,-59.402 l -172.305,35.25 c 43.661,98.226 139.743,147.25 288.25,147.25 75.145,0 134.192,-13.063 177.129,-39.004 42.942,-26.121 64.59,-64.41 64.59,-115.047 0,-22.723 -12.699,-103.059 -37.746,-241.188 -9.488,-51.351 -14.316,-85.343 -14.316,-102.164 0,-13.597 1.789,-29.164 5.367,-46.699 z M 495.68,445.941 c -96.082,-7.336 -144.211,-38.113 -144.211,-92.144 0,-29.703 15.566,-44.555 46.699,-44.555 19.859,0 39.898,8.77 59.758,26.66 19.863,17.895 32.387,54.571 37.754,110.039"
       style="fill:#ffffff;fill-opacity:1;fill-rule:nonzero;stroke:none"
       transform="matrix(0.13333333,0,0,-0.13333333,0,118.66667)" />
    <path
       id="path5"
       d="m 1348.35,259.461 h -132.78 c -0.52,6.758 -0.74,12.207 -0.64,16.355 0.28,11.727 1.42,25.59 3.3,41.586 -27.68,-43.961 -65.39,-65.879 -113.13,-65.879 -32.37,0 -58.19,9.598 -77.69,28.793 -19.51,19.196 -28.914,43.25 -28.222,72.157 0.519,21.566 6.382,41.234 17.602,59.242 11.22,17.894 26.71,32.23 46.7,42.777 19.99,10.664 40.36,17.653 61.1,21.09 20.62,3.316 61.13,7.938 121.29,13.625 2.96,8.648 4.38,15.285 4.5,20.145 0.46,19.191 -12.28,28.906 -38.22,28.906 -25.59,0 -44.72,-13.153 -57.52,-39.336 l -109.95,23.344 c 29.56,65.047 91.97,97.511 187.22,97.511 48.2,0 85.86,-8.648 112.99,-25.828 27.13,-17.301 40.41,-42.656 39.6,-76.187 -0.36,-15.051 -9.79,-68.246 -28.05,-159.719 -6.9,-34.004 -10.54,-56.52 -10.81,-67.656 -0.21,-9.004 0.69,-19.313 2.71,-30.926 z m -115.7,166.594 c -61.74,-4.86 -93.1,-25.242 -93.95,-61.024 -0.48,-19.664 9.27,-29.5 29.24,-29.5 12.74,0 25.73,5.805 38.75,17.657 13.02,11.843 21.64,36.136 25.96,72.867 z m 359,307.234 -88.03,-473.828 h -129.11 l 88.04,473.828 z m 261.56,-386.031 -16.22,-87.797 h -303.88 l 14.63,78.797 173.29,186.73 h -127.15 l 15.81,85.075 h 292.52 l -12.75,-67.657 -182.45,-195.148 z m 361.68,-87.797 h -132.77 c -0.53,6.758 -0.74,12.207 -0.64,16.355 0.28,11.727 1.41,25.59 3.29,41.586 -27.68,-43.961 -65.39,-65.879 -113.13,-65.879 -32.36,0 -58.18,9.598 -77.69,28.793 -19.5,19.196 -28.91,43.25 -28.22,72.157 0.52,21.566 6.39,41.234 17.61,59.242 11.21,17.894 26.71,32.23 46.7,42.777 19.99,10.664 40.36,17.653 61.1,21.09 20.62,3.316 61.13,7.938 121.28,13.625 2.96,8.648 4.38,15.285 4.5,20.145 0.46,19.191 -12.27,28.906 -38.21,28.906 -25.59,0 -44.73,-13.153 -57.52,-39.336 l -109.95,23.344 c 29.56,65.047 91.97,97.511 187.22,97.511 48.19,0 85.85,-8.648 112.99,-25.828 27.12,-17.301 40.4,-42.656 39.59,-76.187 -0.36,-15.051 -9.78,-68.246 -28.04,-159.719 -6.9,-34.004 -10.54,-56.52 -10.81,-67.656 -0.21,-9.004 0.69,-19.313 2.7,-30.926 z M 2099.2,426.055 c -61.74,-4.86 -93.1,-25.242 -93.96,-61.024 -0.47,-19.664 9.27,-29.5 29.24,-29.5 12.74,0 25.73,5.805 38.75,17.657 13.02,11.843 21.64,36.136 25.97,72.867"
       style="fill:#1a2f5f;fill-opacity:1;fill-rule:nonzero;stroke:none"
       transform="matrix(0.13333333,0,0,-0.13333333,0,118.66667)" />
    <path
       id="path6"
       d="m 2354.68,357.672 -17.2,-96.34 h -92.14 l 16.96,96.34 z m 184.13,8.172 74.49,-19.887 c -14.21,-34.777 -32.36,-58.836 -54.47,-72.277 -22.1,-13.344 -44.72,-20.063 -68.03,-20.063 -34.2,0 -61.85,11.711 -83.03,35.231 -21.17,23.511 -31.3,53.75 -30.45,90.613 0.96,42.039 14.55,79.176 40.94,111.41 26.4,32.324 60.72,48.484 102.89,48.484 30.69,0 56.36,-9.988 77.2,-29.964 20.84,-19.973 30.9,-45.668 30.18,-76.996 l -84.5,-10.625 c 0.67,29.054 -8.06,43.585 -26.25,43.585 -15.59,0 -26.85,-11.894 -34.01,-35.593 -7.09,-23.789 -10.83,-44.582 -11.24,-62.289 -0.6,-26.239 8.32,-39.403 26.6,-39.403 18.02,0 31.23,12.621 39.68,37.774 z m 308.42,-37.227 -11.85,-67.285 h -222 l 10.69,60.383 126.59,143.098 h -92.88 l 11.55,65.191 h 213.7 l -9.32,-51.848 -133.29,-149.539 h 106.81"
       style="fill:#231f20;fill-opacity:1;fill-rule:nonzero;stroke:none"
       transform="matrix(0.13333333,0,0,-0.13333333,0,118.66667)" />
  </g>
</svg>
